<?xml version="1.0" encoding="UTF-8"?>
<svg version="1.1" xmlns="http://www.w3.org/2000/svg" width="229" height="120">
<path d="M0 0 C75.57 0 151.14 0 229 0 C229 39.6 229 79.2 229 120 C153.43 120 77.86 120 0 120 C0 80.4 0 40.8 0 0 Z " fill="#0E2237" transform="translate(0,0)"/>
<path d="M0 0 C5.58756541 4.33661793 9.24489175 10.00554802 11.84375 16.5625 C11.51375 17.2225 11.18375 17.8825 10.84375 18.5625 C10.39386719 18.17578125 9.94398437 17.7890625 9.48046875 17.390625 C-3.04169844 7.25243754 -17.68383256 6.47324854 -33.15625 7.5625 C-40.64932941 8.38827893 -48.1042277 9.57259567 -55.54321289 10.78369141 C-82.12476396 15.03708202 -82.12476396 15.03708202 -91.90625 8.8125 C-94.4854545 6.2332955 -95.85367873 3.96365831 -97.15625 0.5625 C-96.82625 -0.4275 -96.49625 -1.4175 -96.15625 -2.4375 C-94.67125 -1.4475 -94.67125 -1.4475 -93.15625 -0.4375 C-80.35467748 5.86239821 -61.24867009 0.30114528 -47.984375 -2.52734375 C-32.13615097 -5.86784302 -14.27776883 -9.51851255 0 0 Z " fill="#F88B2B" transform="translate(110.15625,93.4375)"/>
<path d="M0 0 C4.84873277 4.12388593 8.73316706 8.09483772 11.25390625 13.9765625 C10.92390625 14.6365625 10.59390625 15.2965625 10.25390625 15.9765625 C9.73183594 15.58984375 9.20976563 15.203125 8.671875 14.8046875 C-3.73620002 6.02559414 -15.74079063 4.40113806 -30.5390625 6.51953125 C-33.61909128 7.11705023 -36.67412903 7.77015389 -39.72607422 8.49707031 C-42.76384341 9.21814581 -45.8117908 9.89224556 -48.85961914 10.56933594 C-50.40546949 10.91408824 -51.95031089 11.2634093 -53.49389648 11.61816406 C-65.02187884 14.24165694 -77.72067873 16.3739414 -88.74609375 10.9765625 C-92.5057377 8.52462079 -94.85549219 6.07286588 -96.74609375 1.9765625 C-96.41609375 0.9865625 -96.08609375 -0.0034375 -95.74609375 -1.0234375 C-94.47765625 -0.0334375 -94.47765625 -0.0334375 -93.18359375 0.9765625 C-79.28041168 8.80580932 -55.12211116 -0.24450675 -40.74609375 -4.0234375 C-39.57433594 -4.36955078 -39.57433594 -4.36955078 -38.37890625 -4.72265625 C-25.94901312 -8.13241292 -10.55466965 -7.77712501 0 0 Z " fill="#F78A2B" transform="translate(105.74609375,80.0234375)"/>
<path d="M0 0 C3.80489745 1.49478114 5.66190835 3.69442214 8 7 C9.19166172 10.57498516 9.1325072 13.48138414 9.125 17.25 C9.12886719 19.17585938 9.12886719 19.17585938 9.1328125 21.140625 C9.004597 24.86641645 8.59918558 28.32879946 8 32 C8.37769531 31.50886719 8.75539063 31.01773438 9.14453125 30.51171875 C11.71063292 28.42102117 13.42570933 28.69737798 16.6875 28.8125 C18.17830078 28.85310547 18.17830078 28.85310547 19.69921875 28.89453125 C20.45847656 28.92933594 21.21773437 28.96414062 22 29 C22 30.32 22 31.64 22 33 C18.37 33 14.74 33 11 33 C11 34.65 11 36.3 11 38 C12.90667768 39.90667768 16.1892267 39.84171814 18.7734375 40.3046875 C21.32746082 41.10225969 22.39486219 41.87495907 24 44 C24.59059604 48.06034781 24.66760547 50.10218575 22.1875 53.4375 C17.50676177 55.73197952 13.12149648 55.32289645 8 55 C8.33 53.68 8.66 52.36 9 51 C13.95 50.505 13.95 50.505 19 50 C19.33 48.68 19.66 47.36 20 46 C18.16071869 44.16071869 15.64861765 44.82086793 13.203125 44.76953125 C9.69148011 43.54294607 8.21962037 40.92974367 6 38 C5.65219482 38.80743652 5.30438965 39.61487305 4.94604492 40.44677734 C3.65041822 43.44292759 2.34686455 46.43546225 1.0378418 49.42578125 C0.47311662 50.72028765 -0.08843496 52.01618337 -0.64672852 53.31347656 C-1.45016808 55.1788847 -2.26492001 57.03898474 -3.08203125 58.8984375 C-3.56905518 60.01911621 -4.0560791 61.13979492 -4.55786133 62.29443359 C-6 65 -6 65 -9 67 C-11.48046875 67.1953125 -11.48046875 67.1953125 -14.1875 67.125 C-15.08855469 67.10695313 -15.98960938 67.08890625 -16.91796875 67.0703125 C-17.60503906 67.04710938 -18.29210937 67.02390625 -19 67 C-17.66530708 63.56475008 -16.19490714 60.24688642 -14.57421875 56.9375 C-7.11607159 41.75391642 -7.11607159 41.75391642 -1 26 C-0.63648438 24.9790625 -0.63648438 24.9790625 -0.265625 23.9375 C1.97623239 16.66661116 2.25002462 7.27207959 0 0 Z " fill="#919292" transform="translate(39,15)"/>
<path d="M0 0 C3.13710677 1.35465974 3.91755623 1.86161224 5.75 4.9375 C11.74896074 21.42626359 0.65577825 41.42423395 -6.12817383 56.04174805 C-8.23853021 60.50042053 -10.41300758 64.79513907 -13 69 C-16.64572278 68.69618977 -17.74203039 68.3029751 -20.171875 65.44921875 C-20.77515625 64.64097656 -21.3784375 63.83273438 -22 63 C-21.60731934 62.20529297 -21.21463867 61.41058594 -20.81005859 60.59179688 C-5.37251498 31.68157258 -5.37251498 31.68157258 0 0 Z " fill="#969797" transform="translate(31,12)"/>
<path d="M0 0 C4.63235294 2.26470588 4.63235294 2.26470588 6 5 C6.66 5 7.32 5 8 5 C9.0828125 3.7625 9.0828125 3.7625 10.1875 2.5 C13 0 13 0 16.5625 -0.5 C20.04688447 0.00681956 21.49899342 0.59903368 24 3 C23.67 3.99 23.34 4.98 23 6 C22.37351563 5.90460937 21.74703125 5.80921875 21.1015625 5.7109375 C20.28429687 5.60007812 19.46703125 5.48921875 18.625 5.375 C17.81289062 5.25898437 17.00078125 5.14296875 16.1640625 5.0234375 C15.44992188 5.01570313 14.73578125 5.00796875 14 5 C13.34 5.66 12.68 6.32 12 7 C12.32326553 10.59679066 12.32326553 10.59679066 13 14 C16.63 14 20.26 14 24 14 C22 18 22 18 20 19 C15.79633033 19.39657261 13.66776745 19.42623455 10.0625 17.125 C8 15 8 15 8 13 C7.34 13 6.68 13 6 13 C5.731875 13.61875 5.46375 14.2375 5.1875 14.875 C4 17 4 17 1 19 C-2.09463501 19.39930774 -4.04120388 19.65047463 -7 19 C-10.57242969 15.94854964 -11.82856498 14.08575513 -12.5625 9.4375 C-11.91429589 5.47625263 -10.81200626 3.81200626 -8 1 C-5.17998673 -0.41000664 -3.12992745 -0.24548451 0 0 Z " fill="#EAECED" transform="translate(93,51)"/>
<path d="M0 0 C0.99 0.33 1.98 0.66 3 1 C3 3.31 3 5.62 3 8 C3.474375 6.865625 3.94875 5.73125 4.4375 4.5625 C6 1 6 1 7 0 C8.85287502 -0.07226502 10.70833878 -0.0838122 12.5625 -0.0625 C13.57441406 -0.05347656 14.58632812 -0.04445312 15.62890625 -0.03515625 C16.80259766 -0.01775391 16.80259766 -0.01775391 18 0 C18 1.32 18 2.64 18 4 C14.7 4 11.4 4 8 4 C8.33 4.99 8.66 5.98 9 7 C10.918125 7.185625 10.918125 7.185625 12.875 7.375 C16.75 7.75 16.75 7.75 19 10 C19.55184579 15.18735038 19.55184579 15.18735038 17.859375 17.6796875 C15.18906045 19.57583523 13.17242798 19.29362765 9.9375 19.1875 C8.87402344 19.16042969 7.81054688 19.13335937 6.71484375 19.10546875 C5.81894531 19.07066406 4.92304688 19.03585938 4 19 C3.34 19 2.68 19 2 19 C1.01 19 0.02 19 -1 19 C-1.02683987 16.02077407 -1.04676037 13.04178705 -1.0625 10.0625 C-1.07087891 9.21236328 -1.07925781 8.36222656 -1.08789062 7.48632812 C-1.09111328 6.67744141 -1.09433594 5.86855469 -1.09765625 5.03515625 C-1.10289307 4.2862915 -1.10812988 3.53742676 -1.11352539 2.76586914 C-1 1 -1 1 0 0 Z " fill="#E5E7EA" transform="translate(156,51)"/>
<path d="M0 0 C4.4180399 2.12720439 4.4180399 2.12720439 6 5 C6.5117567 9.70709546 6.3445724 14.28446295 6 19 C5.360625 18.814375 4.72125 18.62875 4.0625 18.4375 C3.0415625 18.2209375 3.0415625 18.2209375 2 18 C1.67 18.33 1.34 18.66 1 19 C-6.00265252 19.70026525 -6.00265252 19.70026525 -9.9375 16.9375 C-12.44488346 13.3663781 -13.15331912 11.36959504 -13 7 C-9.83292036 1.4482957 -6.34307041 -0.73189274 0 0 Z " fill="#EEEFF0" transform="translate(205,51)"/>
<path d="M0 0 C-0.66 0.66 -1.32 1.32 -2 2 C-2.55034912 1.78996338 -3.10069824 1.57992676 -3.66772461 1.36352539 C-9.07057974 -0.58480998 -13.82595191 -1.57782853 -19.5625 -1.5625 C-20.38459961 -1.5637085 -21.20669922 -1.56491699 -22.05371094 -1.56616211 C-33.49959429 -1.28732047 -44.74028598 1.30852686 -55.921875 3.58984375 C-82.23245818 8.93609703 -82.23245818 8.93609703 -92 4 C-92.99 3.34 -93.98 2.68 -95 2 C-94.67 1.01 -94.34 0.02 -94 -1 C-92.6696875 -0.2884375 -92.6696875 -0.2884375 -91.3125 0.4375 C-77.26367316 7.06430512 -58.79928204 1.74520403 -44.58203125 -2.3046875 C-29.20507856 -6.44553104 -14.46879796 -7.04567553 0 0 Z " fill="#303035" transform="translate(109,90)"/>
<path d="M0 0 C0 1.32 0 2.64 0 4 C-3.63 4 -7.26 4 -11 4 C-11 5.65 -11 7.3 -11 9 C-9.09332232 10.90667768 -5.8107733 10.84171814 -3.2265625 11.3046875 C-0.67253918 12.10225969 0.39486219 12.87495907 2 15 C2.59059604 19.06034781 2.66760547 21.10218575 0.1875 24.4375 C-4.49323823 26.73197952 -8.87850352 26.32289645 -14 26 C-13.67 24.68 -13.34 23.36 -13 22 C-9.7 21.67 -6.4 21.34 -3 21 C-2.67 19.68 -2.34 18.36 -2 17 C-3.21589984 15.56844101 -3.21589984 15.56844101 -6.8125 15.6875 C-9.73315939 15.3361819 -10.96682546 15.02156345 -13.5 13.375 C-15.61242231 10.03033134 -15.55437355 7.88061483 -15 4 C-11.90664851 -1.74479562 -5.69226298 -0.35331287 0 0 Z " fill="#E6E8EB" transform="translate(61,44)"/>
<path d="M0 0 C0.99 0.33 1.98 0.66 3 1 C4.20427373 3.48180012 5.22540913 5.86479775 6.1875 8.4375 C6.46013672 9.13166016 6.73277344 9.82582031 7.01367188 10.54101562 C9 15.68356438 9 15.68356438 9 18 C9.66 18 10.32 18 11 18 C11.17015625 17.3709375 11.3403125 16.741875 11.515625 16.09375 C13.14570353 10.33645135 15.16919403 5.27115594 18 0 C18.99 0.33 19.98 0.66 21 1 C18.41874331 9.17397951 15.22988119 17.06640834 12 25 C10.68 25 9.36 25 8 25 C6.46044633 21.59146656 4.94670716 18.17206557 3.4375 14.75 C2.99986328 13.78191406 2.56222656 12.81382813 2.11132812 11.81640625 C1.70205078 10.88183594 1.29277344 9.94726562 0.87109375 8.984375 C0.48880615 8.12553711 0.10651855 7.26669922 -0.28735352 6.38183594 C-1.06788452 3.7731136 -0.92196851 2.52328224 0 0 Z " fill="#E8EAEC" transform="translate(133,44)"/>
<path d="M0 0 C0.33 0 0.66 0 1 0 C2.19442009 22.12995001 -8.51424794 42.07149452 -19 61 C-19.67612419 62.3285625 -20.34786461 63.65949948 -21 65 C-22.32 64.34 -23.64 63.68 -25 63 C-24.43925781 62.53464844 -23.87851562 62.06929687 -23.30078125 61.58984375 C-20.07589039 57.95978833 -18.23982439 53.93800788 -16.1875 49.5625 C-15.75244141 48.63816162 -15.31738281 47.71382324 -14.86914062 46.76147461 C-8.83072289 33.61857827 -3.72383948 20.09976785 -2.38671875 5.6171875 C-2 3 -2 3 0 0 Z " fill="#1A2B3E" transform="translate(40,19)"/>
<path d="M0 0 C1.32 0 2.64 0 4 0 C4 1.65 4 3.3 4 5 C6.97 5 9.94 5 13 5 C12.67 6.32 12.34 7.64 12 9 C9.36 9 6.72 9 4 9 C4.66 12.3 5.32 15.6 6 19 C9.3 19 12.6 19 16 19 C15 23 15 23 14 24 C6.95189873 24.58734177 6.95189873 24.58734177 3.0625 22.1875 C0.26911325 19.22481708 -0.12712527 16.90766097 -0.09765625 12.98828125 C-0.09443359 12.23095703 -0.09121094 11.47363281 -0.08789062 10.69335938 C-0.07951172 9.90767578 -0.07113281 9.12199219 -0.0625 8.3125 C-0.05798828 7.51521484 -0.05347656 6.71792969 -0.04882812 5.89648438 C-0.0370585 3.93095743 -0.01912348 1.96546915 0 0 Z " fill="#E6E8EA" transform="translate(176,46)"/>
<path d="M0 0 C0.99 0 1.98 0 3 0 C3.33 3.96 3.66 7.92 4 12 C5.11375 10.7625 5.11375 10.7625 6.25 9.5 C9 7 9 7 13 7 C11.70700306 9.88437779 10.34058637 11.87219421 8 14 C9.09907608 16.56451085 10.0984449 18.09554946 12.125 20.0625 C14 22 14 22 14 25 C10.60807637 24.40716379 8.7892243 23.23256811 6.25 20.9375 C5.32960938 20.11572266 5.32960938 20.11572266 4.390625 19.27734375 C3.93171875 18.85582031 3.4728125 18.43429688 3 18 C3 20.31 3 22.62 3 25 C2.01 25 1.02 25 0 25 C0 16.75 0 8.5 0 0 Z " fill="#F4F5F6" transform="translate(118,45)"/>
<path d="M0 0 C2.4375 1.5 2.4375 1.5 4 3 C3.67 3.99 3.34 4.98 3 6 C2.06027344 5.85691406 2.06027344 5.85691406 1.1015625 5.7109375 C0.28429687 5.60007812 -0.53296875 5.48921875 -1.375 5.375 C-2.18710938 5.25898437 -2.99921875 5.14296875 -3.8359375 5.0234375 C-4.55007812 5.01570313 -5.26421875 5.00796875 -6 5 C-6.66 5.66 -7.32 6.32 -8 7 C-7.67673447 10.59679066 -7.67673447 10.59679066 -7 14 C-3.37 14 0.26 14 4 14 C2 18 2 18 0 19 C-4.20366967 19.39657261 -6.33223255 19.42623455 -9.9375 17.125 C-12 15 -12 15 -12 13 C-12.66 13 -13.32 13 -14 13 C-14.47625775 9.59815894 -14.78196478 7.07287429 -12.6875 4.19921875 C-8.64872457 0.42188191 -5.66086691 -0.96127929 0 0 Z " fill="#E4E6E8" transform="translate(113,51)"/>
<path d="M0 0 C0.33 0 0.66 0 1 0 C1 7.59 1 15.18 1 23 C0.34 22.34 -0.32 21.68 -1 21 C-0.67 20.34 -0.34 19.68 0 19 C-0.7734375 19.2475 -0.7734375 19.2475 -1.5625 19.5 C-4.80276514 20.16466977 -7.7027333 20.24424198 -11 20 C-13.15502531 16.76746204 -13.46856135 15.74849077 -13 12 C-11.7734375 10.32421875 -11.7734375 10.32421875 -10 9 C-7.73828125 8.92578125 -7.73828125 8.92578125 -5.3125 9.3125 C-3.1778125 9.6528125 -3.1778125 9.6528125 -1 10 C-0.67 6.7 -0.34 3.4 0 0 Z " fill="#192C41" transform="translate(117,46)"/>
<path d="M0 0 C0.99 0 1.98 0 3 0 C3 1.65 3 3.3 3 5 C5.97 5 8.94 5 12 5 C12.33 5.99 12.66 6.98 13 8 C9.7 8 6.4 8 3 8 C3.30782496 9.64671412 3.62139234 11.29235576 3.9375 12.9375 C4.19853516 14.31228516 4.19853516 14.31228516 4.46484375 15.71484375 C4.77714988 17.95289844 4.77714988 17.95289844 6 19 C7.68608966 19.07205511 9.37500659 19.08386068 11.0625 19.0625 C11.98160156 19.05347656 12.90070313 19.04445313 13.84765625 19.03515625 C14.55792969 19.02355469 15.26820312 19.01195313 16 19 C15.625 20.9375 15.625 20.9375 15 23 C11.84203893 24.57898053 8.39329364 24.81928171 5 24 C2.07681422 21.96376375 0.25595364 20.4161822 -0.39624023 16.80761719 C-0.49225049 14.2497205 -0.43641801 11.74402394 -0.3125 9.1875 C-0.28994141 8.30384766 -0.26738281 7.42019531 -0.24414062 6.50976562 C-0.18547428 4.3391109 -0.09579979 2.1693331 0 0 Z " fill="#F0F2F3" transform="translate(65,46)"/>
<path d="M0 0 C0.99 0.33 1.98 0.66 3 1 C3 3.31 3 5.62 3 8 C6.82517513 10.39073445 10.59665524 10.55966552 15 11 C15.33 12.32 15.66 13.64 16 15 C15.24074219 15.03738281 14.48148438 15.07476562 13.69921875 15.11328125 C12.70535156 15.17902344 11.71148437 15.24476562 10.6875 15.3125 C9.70136719 15.37050781 8.71523437 15.42851563 7.69921875 15.48828125 C4.67485405 16.06164127 4.0087039 16.80279602 2 19 C1.01 19 0.02 19 -1 19 C-1.02683987 16.02077407 -1.04676037 13.04178705 -1.0625 10.0625 C-1.07087891 9.21236328 -1.07925781 8.36222656 -1.08789062 7.48632812 C-1.09111328 6.67744141 -1.09433594 5.86855469 -1.09765625 5.03515625 C-1.10289307 4.2862915 -1.10812988 3.53742676 -1.11352539 2.76586914 C-1 1 -1 1 0 0 Z " fill="#2F4053" transform="translate(156,51)"/>
<path d="M0 0 C1.875 1.1875 1.875 1.1875 3 3 C3.59636329 6.3225955 3.29109393 7.57455503 1.375 10.375 C-1 12 -1 12 -4.125 11.9375 C-7 11 -7 11 -9 8 C-9.35384949 5.16920408 -9.3920891 3.63169911 -7.875 1.1875 C-5.12844028 -0.55198782 -3.18153026 -0.39769128 0 0 Z " fill="#1B2E43" transform="translate(205,55)"/>
<path d="M0 0 C1.670625 0.37125 1.670625 0.37125 3.375 0.75 C4.75625018 3.51250036 4.56579306 5.69731099 4.375 8.75 C2.375 10.75 2.375 10.75 -1.125 11 C-4.625 10.75 -4.625 10.75 -6.625 8.75 C-6.9375 5.25 -6.9375 5.25 -6.625 1.75 C-3.625 -0.25 -3.625 -0.25 0 0 Z " fill="#12253B" transform="translate(91.625,55.25)"/>
<path d="M0 0 C0.72888428 -0.00386719 1.45776855 -0.00773437 2.20874023 -0.01171875 C9.44881924 0.1400218 15.29771153 2.26508127 21.8125 5.4375 C21.1525 6.0975 20.4925 6.7575 19.8125 7.4375 C18.63816406 6.94636719 17.46382812 6.45523438 16.25390625 5.94921875 C9.52969127 3.70781376 2.76025986 4.11525375 -4.25 4.25 C-5.60610486 4.26508044 -6.96222602 4.27876288 -8.31835938 4.29101562 C-11.60849602 4.32614164 -14.89778183 4.3753336 -18.1875 4.4375 C-13.73553801 -0.01446199 -6.02877878 0.02245617 0 0 Z " fill="#3D3634" transform="translate(87.1875,84.5625)"/>
<path d="M0 0 C0.33 0 0.66 0 1 0 C1.50656441 9.38551286 1.26531994 18.41670186 -3 27 C-5.140625 28.359375 -5.140625 28.359375 -7 29 C-6.58427734 27.44152344 -6.58427734 27.44152344 -6.16015625 25.8515625 C-4.33736799 18.87759803 -2.59735567 12.15629406 -2.2734375 4.91796875 C-2 3 -2 3 0 0 Z " fill="#2A3848" transform="translate(40,19)"/>
<path d="M0 0 C1.66015625 0.74869792 3.3203125 1.49739583 4.98046875 2.24609375 C10.11185296 4.16167818 15.39979597 4.28573978 20.8125 4.5625 C21.60076172 4.60568359 22.38902344 4.64886719 23.20117188 4.69335938 C25.13394215 4.79878321 27.06695026 4.89983094 29 5 C29 5.33 29 5.66 29 6 C21.11203185 7.88392249 10.38545326 8.75239367 3 5 C2.01 4.34 1.02 3.68 0 3 C0 2.01 0 1.02 0 0 Z " fill="#202936" transform="translate(14,89)"/>
<path d="M0 0 C0.33 0 0.66 0 1 0 C1.33 4.29 1.66 8.58 2 13 C1.01 13.495 1.01 13.495 0 14 C-0.66 11.69 -1.32 9.38 -2 7 C-4.64 6.67 -7.28 6.34 -10 6 C-10.33 4.68 -10.66 3.36 -11 2 C-10.28972656 1.93941406 -9.57945312 1.87882812 -8.84765625 1.81640625 C-7.46900391 1.69072266 -7.46900391 1.69072266 -6.0625 1.5625 C-5.14597656 1.48128906 -4.22945312 1.40007813 -3.28515625 1.31640625 C-1.03840268 1.23955024 -1.03840268 1.23955024 0 0 Z " fill="#1C2F43" transform="translate(175,53)"/>
<path d="M0 0 C0.66 0 1.32 0 2 0 C2 6.27 2 12.54 2 19 C1.01 19 0.02 19 -1 19 C-1.02683987 16.02077407 -1.04676037 13.04178705 -1.0625 10.0625 C-1.07087891 9.21236328 -1.07925781 8.36222656 -1.08789062 7.48632812 C-1.09111328 6.67744141 -1.09433594 5.86855469 -1.09765625 5.03515625 C-1.10289307 4.2862915 -1.10812988 3.53742676 -1.11352539 2.76586914 C-1 1 -1 1 0 0 Z " fill="#F9F9FA" transform="translate(156,51)"/>
<path d="M0 0 C0.99 0 1.98 0 3 0 C1.25 5.75 1.25 5.75 -1 8 C-1.66 8 -2.32 8 -3 8 C-1.125 2.25 -1.125 2.25 0 0 Z " fill="#1F3144" transform="translate(29,57)"/>
</svg>
